<svg width="128" height="32" viewBox="0 0 128 32" fill="none" xmlns="http://www.w3.org/2000/svg">
<path d="M7.64614 12.882C7.82709 12.7012 7.96994 12.5645 8.10803 12.4326C9.26513 11.3042 10.6317 10.6204 12.2126 10.425C14.8173 10.1075 17.0267 10.9281 18.8124 12.9064C19.898 14.108 20.5742 15.5246 20.7837 17.1463C21.1266 19.8036 20.4694 22.1434 18.6029 24.0777C17.4791 25.2452 16.1506 26.0219 14.5602 26.2807C12.0698 26.6813 9.82225 26.1147 7.86042 24.4636C7.70328 24.3317 7.55567 24.1803 7.39853 24.0435C6.82236 23.5502 6.49857 22.881 6.19382 22.2069C5.78907 21.3179 5.50337 20.3898 5.3748 19.4177C5.36052 19.3054 5.35099 19.1979 5.35099 19.0856C5.35099 14.5428 5.35099 10.0049 5.35099 5.4621C5.35099 5.3986 5.34623 5.33021 5.35099 5.26671C5.3748 5.06644 5.45099 4.98828 5.64622 4.98828C6.21286 4.9834 6.77951 4.9834 7.34139 4.98828C7.54138 4.98828 7.61281 5.07132 7.63662 5.2716C7.64614 5.35464 7.64138 5.43767 7.64138 5.52071C7.64138 7.86049 7.64138 10.2003 7.64138 12.54C7.64614 12.6377 7.64614 12.7354 7.64614 12.882ZM13.0221 24.1315C13.5316 24.1364 14.0649 24.0777 14.584 23.9165C16.8267 23.2278 18.4505 21.0883 18.5505 18.6801C18.6267 16.7751 17.9695 15.1729 16.5934 13.9127C15.3268 12.7501 13.8126 12.33 12.1412 12.6182C10.4413 12.9113 9.09847 13.8003 8.23183 15.3536C7.47948 16.7018 7.36044 18.1575 7.63662 19.662C8.04613 21.904 10.1365 24.1852 13.0221 24.1315Z" fill="#0F0F0F"/>
<path d="M26.0376 18.7561C26.0757 19.6549 26.2423 20.4853 26.6328 21.2571C27.3518 22.6834 28.4279 23.7092 29.9755 24.0707C31.9135 24.52 33.6611 24.0511 35.1705 22.7225C35.5753 22.3659 35.88 21.9165 36.1752 21.4622C36.3038 21.2619 36.4276 21.0568 36.5514 20.8565C36.68 20.6514 36.7562 20.6269 36.9752 20.7393C37.1371 20.8223 37.2895 20.9102 37.4514 20.9982C37.7514 21.1642 38.0561 21.3254 38.3561 21.4915C38.5704 21.6136 38.6037 21.6967 38.5037 21.9116C37.4181 24.1635 35.7324 25.6631 33.3087 26.2053C31.8183 26.5374 30.3279 26.4788 28.8613 26.0343C27.5613 25.6386 26.4852 24.8913 25.6185 23.8167C24.5805 22.5271 23.9138 21.0714 23.7377 19.4058C23.4805 16.9634 24.1234 14.7946 25.6852 12.9237C26.9709 11.3851 28.6089 10.5595 30.5707 10.3886C31.8707 10.2713 33.1468 10.4032 34.3468 10.9259C36.6419 11.9273 38.1037 13.6906 38.7561 16.1574C38.9418 16.8608 39.0275 17.5838 39.037 18.3165C39.037 18.3897 39.0418 18.463 39.0323 18.5363C39.018 18.6633 38.9418 18.7365 38.818 18.7463C38.7275 18.7512 38.6371 18.7512 38.5466 18.7512C34.4848 18.7512 30.4279 18.7512 26.3661 18.7512C26.2709 18.7561 26.1709 18.7561 26.0376 18.7561ZM36.5038 16.6557C36.2657 15.7959 35.9514 14.9949 35.3419 14.3647C33.823 12.7919 31.9802 12.2985 29.9088 12.8212C28.3041 13.2266 27.2185 14.311 26.5852 15.8692C26.4804 16.1183 26.3709 16.3723 26.3185 16.6557C29.7136 16.6557 33.0992 16.6557 36.5038 16.6557Z" fill="#0F0F0F"/>
<path d="M43.9336 18.7497C43.9717 19.6485 44.1383 20.4789 44.5288 21.2555C45.2478 22.6819 46.3239 23.7077 47.8715 24.0691C49.8095 24.5185 51.5571 24.0496 53.0665 22.7209C53.4713 22.3644 53.776 21.915 54.0712 21.4607C54.1998 21.2604 54.3236 21.0553 54.4474 20.855C54.576 20.6498 54.6522 20.6254 54.8712 20.7378C55.0331 20.8208 55.1855 20.9087 55.3474 20.9966C55.6474 21.1627 55.9521 21.3239 56.2521 21.49C56.4664 21.6121 56.4997 21.6952 56.3997 21.9101C55.314 24.1619 53.6284 25.6615 51.2047 26.2037C49.7048 26.5359 48.2048 26.4773 46.7334 26.0279C45.443 25.6322 44.3764 24.8849 43.5145 23.8151C42.4765 22.5256 41.8098 21.0699 41.6337 19.4042C41.3765 16.9619 42.0194 14.7931 43.5812 12.9222C44.8669 11.3835 46.5049 10.558 48.4667 10.387C49.7667 10.2698 51.0428 10.4017 52.2427 10.9244C54.5379 11.9257 55.9997 13.6891 56.6521 16.1559C56.8378 16.8593 56.9235 17.5822 56.933 18.3149C56.933 18.3882 56.9378 18.4615 56.9283 18.5348C56.914 18.6618 56.8378 18.735 56.714 18.7448C56.6235 18.7497 56.533 18.7497 56.4426 18.7497C52.3808 18.7497 48.3239 18.7497 44.2621 18.7497C44.1621 18.7497 44.0669 18.7497 43.9336 18.7497ZM44.2145 16.6492C47.6144 16.6492 50.9952 16.6492 54.3808 16.6492C53.7951 13.9627 51.538 12.6975 49.4191 12.6291C47.0144 12.5461 44.9621 13.9187 44.2145 16.6492Z" fill="#0F0F0F"/>
<path d="M59.2729 13.6056C59.2729 10.9873 59.2729 8.37402 59.2729 5.75581C59.2729 5.29176 59.2967 5.26733 59.7395 5.26733C60.1966 5.26733 60.6538 5.26733 61.1156 5.26733C61.5585 5.26733 61.5775 5.28687 61.5775 5.75581C61.5775 7.50454 61.5775 9.25815 61.5775 11.0069C61.5775 11.4025 61.5775 11.7982 61.5775 12.1939C61.5775 12.4674 61.549 12.4479 61.8204 12.4479C62.6822 12.4479 63.5441 12.4479 64.406 12.4479C64.4679 12.4479 64.5298 12.4479 64.5964 12.4479C64.9964 12.4479 65.025 12.4772 65.025 12.8875C65.025 13.3222 65.0298 13.7521 65.025 14.1868C65.0202 14.4848 64.9679 14.5385 64.6726 14.5385C63.7298 14.5385 62.787 14.5385 61.8442 14.5385C61.5728 14.5385 61.5966 14.5141 61.5966 14.7877C61.5966 16.6927 61.5966 18.6026 61.5966 20.5077C61.5966 20.9864 61.6013 21.4651 61.7108 21.934C61.8918 22.7156 62.2823 23.3603 62.8775 23.8732C63.2965 24.2298 63.8108 24.2787 64.3298 24.2494C64.6822 24.2298 65.0155 24.1224 65.3345 23.9612C65.3726 23.9416 65.4155 23.9172 65.4535 23.9025C65.6535 23.8195 65.7488 23.8586 65.8297 24.0686C65.9202 24.2982 65.9964 24.5327 66.0821 24.7671C66.1773 25.026 66.2773 25.28 66.3678 25.5389C66.4249 25.7099 66.3916 25.8076 66.2297 25.8711C65.3345 26.2081 64.4203 26.4719 63.4489 26.3889C62.268 26.2912 61.3156 25.7441 60.568 24.8062C59.6824 23.7023 59.2776 22.4225 59.2729 21.001C59.2681 18.544 59.2681 16.0723 59.2729 13.6056Z" fill="#0F0F0F"/>
<path d="M77.1854 18.7526C75.1474 18.7526 73.1094 18.7526 71.0714 18.7526C70.7714 18.7526 70.7619 18.6744 70.7952 19.0652C70.9047 20.2961 71.2952 21.4147 72.0856 22.3673C72.857 23.2905 73.8046 23.9353 74.9903 24.1306C76.833 24.4384 78.4853 23.9841 79.9043 22.7287C80.3805 22.3038 80.7329 21.7616 81.0757 21.2193C81.1566 21.0875 81.2328 20.9507 81.3185 20.8237C81.4233 20.6625 81.5138 20.6283 81.6804 20.7211C82.1661 20.98 82.6518 21.2438 83.128 21.5124C83.3185 21.6199 83.3375 21.7078 83.2375 21.9228C83.0137 22.3966 82.7518 22.846 82.4471 23.2709C81.1757 25.0441 79.471 26.0552 77.3473 26.3288C76.1712 26.4802 74.9998 26.4216 73.8475 26.109C72.5142 25.7475 71.3952 25.0441 70.4905 23.9792C69.3763 22.6652 68.662 21.1607 68.4763 19.4218C68.2144 16.9843 68.8525 14.8106 70.4095 12.9349C71.6999 11.3864 73.3427 10.556 75.3188 10.385C76.6188 10.2727 77.8949 10.3997 79.0948 10.9272C81.3805 11.9286 82.8375 13.6871 83.4899 16.1392C83.6803 16.8524 83.7661 17.5851 83.7708 18.3227C83.7708 18.3862 83.7756 18.4497 83.7661 18.5181C83.7518 18.6549 83.6803 18.7379 83.5423 18.7477C83.4613 18.7526 83.3804 18.7526 83.2994 18.7526C81.2614 18.7526 79.2234 18.7526 77.1854 18.7526ZM81.2328 16.657C80.5614 13.7408 78.0568 12.5929 75.9807 12.6271C73.5903 12.6711 71.719 14.156 71.0666 16.657C74.4522 16.657 77.833 16.657 81.2328 16.657Z" fill="#0F0F0F"/>
<path d="M86.7156 15.8683C86.7156 12.5223 86.7156 9.18114 86.7156 5.8351C86.7156 5.37105 86.7441 5.34174 87.2061 5.34174C87.6727 5.34174 88.1394 5.34174 88.606 5.34174C88.9632 5.34174 89.0203 5.40524 89.0251 5.78136C89.0251 6.2796 89.0251 6.77785 89.0251 7.27121C89.0251 13.4699 89.0251 19.6687 89.0251 25.8674C89.0251 26.3852 89.0156 26.3949 88.5156 26.3949C88.0489 26.3949 87.5822 26.3949 87.1156 26.3949C86.7537 26.3949 86.7203 26.3607 86.7203 25.9797C86.7203 22.9317 86.7203 19.8836 86.7203 16.8306C86.7156 16.5131 86.7156 16.1907 86.7156 15.8683Z" fill="#0F0F0F"/>
<path d="M94.652 15.8781C94.652 19.2241 94.652 22.5653 94.652 25.9113C94.652 26.3852 94.6377 26.3998 94.1902 26.3998C93.6949 26.3998 93.2045 26.3998 92.7093 26.3998C92.4093 26.3998 92.3522 26.3363 92.3474 26.0237C92.3474 25.9797 92.3474 25.9309 92.3474 25.8869C92.3474 19.2193 92.3474 12.5467 92.3474 5.87906C92.3474 5.37593 92.376 5.34174 92.8569 5.34174C93.314 5.34174 93.7711 5.34174 94.233 5.34174C94.3044 5.34174 94.3759 5.34662 94.4473 5.35639C94.5711 5.37105 94.6425 5.4492 94.652 5.57621C94.6568 5.66902 94.6568 5.76182 94.6568 5.85463C94.652 9.1909 94.652 12.5369 94.652 15.8781Z" fill="#0F0F0F"/>
<path d="M106.334 18.7507C104.296 18.7507 102.258 18.7507 100.22 18.7507C99.92 18.7507 99.9105 18.6725 99.9438 19.0633C100.053 20.2942 100.444 21.4128 101.234 22.3654C102.01 23.2983 102.967 23.9431 104.163 24.1385C105.982 24.4365 107.62 23.9822 109.029 22.7513C109.448 22.3849 109.762 21.9209 110.072 21.4519C110.205 21.2468 110.329 21.0318 110.462 20.8267C110.567 20.6655 110.658 20.6313 110.824 20.7241C111.31 20.983 111.796 21.2468 112.272 21.5154C112.462 21.6229 112.481 21.7108 112.381 21.9257C112.158 22.3996 111.896 22.849 111.591 23.2739C110.32 25.0471 108.615 26.0582 106.491 26.3318C105.315 26.4832 104.144 26.4246 102.991 26.112C101.658 25.7505 100.539 25.0471 99.6343 23.9822C98.5201 22.6682 97.8058 21.1637 97.6201 19.4248C97.3582 16.9873 97.9963 14.8136 99.5533 12.9378C100.844 11.3894 102.487 10.559 104.463 10.388C105.763 10.2757 107.039 10.4027 108.239 10.9302C110.524 11.9316 111.981 13.6852 112.634 16.1422C112.824 16.8554 112.91 17.5881 112.915 18.3257C112.915 18.3892 112.919 18.4527 112.91 18.5211C112.896 18.6579 112.824 18.7409 112.686 18.7507C112.605 18.7556 112.524 18.7556 112.443 18.7556C110.415 18.7507 108.377 18.7507 106.334 18.7507ZM100.206 16.6502C103.606 16.6502 106.986 16.6502 110.372 16.6502C109.791 13.9734 107.539 12.6985 105.415 12.6301C103.02 12.5471 100.963 13.905 100.206 16.6502Z" fill="#0F0F0F"/>
<path d="M115.448 21.8106C115.448 20.4917 115.448 19.1777 115.448 17.8588C115.448 17.2629 115.591 16.6914 115.772 16.1296C116.195 14.8254 116.762 13.5945 117.714 12.6029C118.619 11.665 119.686 10.986 120.967 10.7125C121.457 10.6099 121.928 10.7223 122.39 10.8883C122.609 10.9665 122.824 11.0691 123.024 11.1912C123.2 11.2987 123.228 11.4012 123.128 11.582C122.833 12.0851 122.524 12.5833 122.224 13.0865C122.148 13.2135 122.038 13.2574 121.9 13.2086C121.209 12.9692 120.6 13.1646 120.067 13.6189C119.114 14.4298 118.391 15.4116 118.057 16.6523C117.938 17.0968 117.905 17.5609 117.871 18.02C117.795 19.0409 117.771 20.0618 117.767 21.0876C117.762 22.6996 117.767 24.3115 117.767 25.9235C117.767 26.3534 117.748 26.3729 117.324 26.3729C116.819 26.3729 116.319 26.3729 115.814 26.3729C115.495 26.3729 115.438 26.3094 115.438 25.987C115.448 24.5949 115.448 23.2027 115.448 21.8106Z" fill="#0F0F0F"/>
</svg>
